<?xml version="1.0" encoding="utf-8"?>
<!-- Generator: Adobe Illustrator 15.1.0, SVG Export Plug-In . SVG Version: 6.00 Build 0)  -->
<!DOCTYPE svg PUBLIC "-//W3C//DTD SVG 1.1//EN" "http://www.w3.org/Graphics/SVG/1.1/DTD/svg11.dtd">
<svg version="1.1" id="Layer_1" xmlns="http://www.w3.org/2000/svg" xmlns:xlink="http://www.w3.org/1999/xlink" x="0px" y="0px"
	 width="551.151px" height="259.17px" viewBox="0 0 551.151 259.17" enable-background="new 0 0 551.151 259.17"
	 xml:space="preserve">
<metadata><?xpacket begin="﻿" id="W5M0MpCehiHzreSzNTczkc9d"?>
<x:xmpmeta xmlns:x="adobe:ns:meta/" x:xmptk="Adobe XMP Core 5.6-c137 79.159547, 2016/07/07-11:39:24        ">
   <rdf:RDF xmlns:rdf="http://www.w3.org/1999/02/22-rdf-syntax-ns#">
      <rdf:Description rdf:about=""
            xmlns:xmp="http://ns.adobe.com/xap/1.0/"
            xmlns:xmpMM="http://ns.adobe.com/xap/1.0/mm/"
            xmlns:stEvt="http://ns.adobe.com/xap/1.0/sType/ResourceEvent#">
         <xmp:MetadataDate>2018-12-20T11:56:36-05:00</xmp:MetadataDate>
         <xmpMM:InstanceID>xmp.iid:423f6882-72cf-40f8-a0db-069fa83377d0</xmpMM:InstanceID>
         <xmpMM:DocumentID>xmp.did:57cf0ddf-1ce9-4b63-9b63-8129402a3c81</xmpMM:DocumentID>
         <xmpMM:OriginalDocumentID>xmp.did:57cf0ddf-1ce9-4b63-9b63-8129402a3c81</xmpMM:OriginalDocumentID>
         <xmpMM:History>
            <rdf:Seq>
               <rdf:li>
                  <rdf:Description>
                     <stEvt:action>saved</stEvt:action>
                     <stEvt:instanceID>xmp.iid:57cf0ddf-1ce9-4b63-9b63-8129402a3c81</stEvt:instanceID>
                     <stEvt:when>2018-12-20T11:51:35-05:00</stEvt:when>
                     <stEvt:softwareAgent>Adobe Bridge CC 2017 (Macintosh)</stEvt:softwareAgent>
                     <stEvt:changed>/metadata</stEvt:changed>
                  </rdf:Description>
               </rdf:li>
               <rdf:li>
                  <rdf:Description>
                     <stEvt:action>saved</stEvt:action>
                     <stEvt:instanceID>xmp.iid:423f6882-72cf-40f8-a0db-069fa83377d0</stEvt:instanceID>
                     <stEvt:when>2018-12-20T11:56:36-05:00</stEvt:when>
                     <stEvt:softwareAgent>Adobe Bridge CC 2017 (Macintosh)</stEvt:softwareAgent>
                     <stEvt:changed>/metadata</stEvt:changed>
                  </rdf:Description>
               </rdf:li>
            </rdf:Seq>
         </xmpMM:History>
      </rdf:Description>
   </rdf:RDF>
</x:xmpmeta>
                                                                                                    
                                                                                                    
                                                                                                    
                                                                                                    
                                                                                                    
                                                                                                    
                                                                                                    
                                                                                                    
                                                                                                    
                                                                                                    
                                                                                                    
                                                                                                    
                                                                                                    
                                                                                                    
                                                                                                    
                                                        
<?xpacket end="w"?></metadata>
<g>
	<path fill="#EF453B" d="M461.156,101.643L461.156,101.643V94.48h1.675c3.229,0,4.27,1.626,4.27,3.688s-1.04,3.475-4.27,3.475
		H461.156z M466.061,102.509L466.061,102.509c1.961-0.813,3-2.44,3-4.341c0-2.821-1.847-5.154-6.116-5.154h-3.692v13.348h1.904
		v-3.254h1.788c0.461,0,0.866-0.056,1.269-0.11l2.599,3.364h2.249L466.061,102.509z M463.521,109.783
		c-6.057,0-10.443-4.071-10.443-9.985c0-5.971,4.387-10.041,10.443-10.041c6.174,0,10.673,4.07,10.673,10.041
		C474.194,105.712,469.695,109.783,463.521,109.783 M463.521,111.356c6.925,0,12.637-4.937,12.637-11.558
		c0-6.677-5.712-11.614-12.637-11.614c-6.808,0-12.463,4.937-12.463,11.614C451.059,106.419,456.714,111.356,463.521,111.356"/>
	<path fill="#EF453B" d="M185.904,149.59v-33.231h-10.455v-8.531h10.455V88.643h11.275v19.185h18.965v8.531h-18.965v33.377
		c0,7.949,3.107,10.401,8.003,10.401c4.576,0,7.034-1.734,9.15-3.469l6.216,6.362c-2.947,2.747-8.167,5.923-16.504,5.923
		C193.746,168.953,185.904,163.751,185.904,149.59"/>
	<path fill="#EF453B" d="M240.035,107.83L240.035,107.83h11.436v59.827h-11.436V107.83z M237.586,93.719
		c0-4.201,3.921-7.226,8.167-7.226c4.255,0,8.173,3.025,8.173,7.226c0,4.184-3.918,7.077-8.173,7.077
		C241.507,100.796,237.586,97.903,237.586,93.719"/>
	<polygon fill="#EF453B" points="269.127,166.211 269.127,166.211 308.181,116.213 273.379,116.213 273.379,107.826 
		326.648,107.826 326.648,109.423 287.254,159.259 325.819,159.259 325.819,167.647 269.127,167.647 	"/>
	<path fill="#EF453B" d="M344.128,107.829L344.128,107.829h11.438l-0.321,11.707c4.242-9.103,11.745-12.86,19.77-12.86
		c5.068,0,8.662,1.019,11.752,2.902l-4.416,8.808c-2.121-1.305-5.062-2.321-9.287-2.321c-9.66,0-17.497,6.075-17.497,20.09v31.5
		h-11.438V107.829z"/>
	<path fill="#EF453B" d="M419.183,140.203c-8.664,0-15.365,2.747-15.365,9.966c0,6.794,5.727,10.402,16.349,10.402
		c10.452,0,19.284-5.059,19.284-12.857v-7.511H419.183z M439.45,131.095c0-11.559-5.882-16.033-15.852-16.033
		c-9.487,0-15.529,3.615-19.781,8.668l-7.005-5.637c5.866-7.08,14.698-11.559,27.608-11.559c15.029,0,26.458,7.81,26.458,24.424
		v36.7H439.45l0.485-8.96c-4.577,6.066-11.603,10.109-22.383,10.109c-14.395,0-24.847-5.78-24.847-18.208
		c0-12.278,11.441-18.057,25.663-18.057h21.081V131.095z"/>
	<path fill="#EF453B" d="M153.228,129.525c-0.026,1.079-0.748,1.979-1.725,2.277c-0.244,0.074-0.507,0.11-0.772,0.106
		c-2.485-0.062-4.952-0.076-7.389-0.035c-1.344,0.026-2.455-1.053-2.482-2.394c-0.024-1.346,1.049-2.46,2.399-2.481
		c2.511-0.045,5.05-0.027,7.589,0.032C152.191,127.064,153.258,128.18,153.228,129.525 M140.172,144.895
		c-0.072,1.031-0.784,1.865-1.72,2.151c-0.283,0.086-0.581,0.125-0.89,0.101c-1.422-0.104-3.305-0.161-3.308-0.161h0.003
		c-1.349-0.038-2.41-1.162-2.371-2.508c0.041-1.347,1.165-2.405,2.508-2.369c0.018,0.003,1.937,0.06,3.525,0.173
		C139.26,142.386,140.27,143.551,140.172,144.895 M138.304,129.574c0.065,1.147-0.668,2.16-1.726,2.482
		c-0.178,0.056-0.363,0.089-0.56,0.101c-2.446,0.152-4.88,0.361-7.279,0.623c-1.338,0.146-2.544-0.821-2.687-2.16
		c-0.152-1.337,0.819-2.544,2.157-2.688c2.476-0.271,4.982-0.486,7.505-0.638C137.061,127.205,138.217,128.229,138.304,129.574
		 M133.223,98.327c-3.566,0.906-6.707,1.779-9.57,2.652c-10.041,3.075-16.796,6.263-27.326,12.323
		c-0.166,0.093-0.333,0.167-0.509,0.221c-1.064,0.325-2.247-0.113-2.827-1.117c-0.671-1.168-0.266-2.661,0.896-3.331
		c10.649-6.136,17.958-9.589,28.339-12.759c2.958-0.906,6.17-1.788,9.791-2.714c1.305-0.331,2.637,0.456,2.967,1.76
		C135.318,96.667,134.529,97.997,133.223,98.327 M90.011,117.185c-6.633,4.365-12.648,9.281-17.937,14.794
		c-0.298,0.312-0.662,0.53-1.046,0.646c-0.816,0.25-1.74,0.06-2.402-0.572c-0.977-0.934-1.004-2.479-0.071-3.448
		c5.563-5.801,11.874-10.949,18.774-15.493c1.126-0.742,2.637-0.426,3.382,0.697C91.447,114.932,91.131,116.446,90.011,117.185
		 M78.909,132.75c6.173-4.49,12.898-8.308,20.079-11.507c1.228-0.548,2.673,0.006,3.215,1.236c0.551,1.231,0,2.673-1.233,3.222
		c-6.895,3.069-13.319,6.718-19.189,10.994c-0.229,0.164-0.474,0.283-0.721,0.361c-0.974,0.295-2.059-0.033-2.691-0.897
		C77.58,135.067,77.818,133.545,78.909,132.75 M85.303,140.717c2.258-1.233,4.577-2.368,6.927-3.417
		c1.228-0.549,2.673,0,3.222,1.229c0.548,1.229-0.003,2.673-1.234,3.222c-2.241,1.001-4.44,2.083-6.579,3.251l-0.456,0.19
		c-1.082,0.33-2.288-0.131-2.854-1.165C83.688,142.845,84.12,141.36,85.303,140.717 M95.672,147.713c0,0,1.552-0.519,3.912-1.296
		c1.282-0.42,2.658,0.273,3.078,1.556c0.42,1.278-0.274,2.657-1.552,3.081c-2.354,0.771-3.895,1.287-3.901,1.287l-0.056,0.017
		c-1.263,0.389-2.604-0.303-3.028-1.558C93.7,149.519,94.394,148.14,95.672,147.713 M105.844,137.409
		c-1.71,0.525-3.399,1.091-5.074,1.695l0.003,0.003l-0.128,0.042c-1.228,0.376-2.55-0.273-3.001-1.499
		c-0.459-1.263,0.191-2.666,1.457-3.128c1.752-0.638,3.522-1.23,5.316-1.779c0.602-0.184,1.213-0.366,1.835-0.542
		c1.297-0.366,2.643,0.388,3.007,1.684c0.366,1.3-0.385,2.646-1.681,3.01C106.997,137.059,106.418,137.233,105.844,137.409
		 M106.765,147.037c-0.25-1.323,0.623-2.599,1.949-2.85c0.003,0,1.722-0.318,3.909-0.731c1.32-0.248,2.595,0.623,2.845,1.944
		c0.23,1.234-0.512,2.426-1.683,2.783l-0.266,0.063c-2.184,0.41-3.909,0.735-3.909,0.735h0.003
		C108.287,149.232,107.012,148.359,106.765,147.037 M113.751,130.289c2.372-0.521,4.767-0.976,7.201-1.369
		c1.327-0.214,2.578,0.689,2.792,2.017c0.2,1.219-0.542,2.372-1.689,2.725l-0.325,0.073c-2.345,0.382-4.654,0.817-6.933,1.317
		c-1.317,0.289-2.616-0.542-2.905-1.856C111.604,131.877,112.435,130.578,113.751,130.289 M107.882,122.867l-0.28,0.107
		c-1.165,0.355-2.431-0.205-2.938-1.347c-0.548-1.227,0.009-2.672,1.24-3.217c3.918-1.735,7.615-3.4,12.63-4.935
		c3.597-1.099,7.86-2.13,13.387-3.101c1.323-0.236,2.593,0.649,2.819,1.975c0.235,1.332-0.652,2.592-1.975,2.825
		c-5.37,0.95-9.422,1.936-12.804,2.97C115.248,119.583,111.824,121.121,107.882,122.867 M119.272,145.169
		c-0.179-1.335,0.76-2.563,2.095-2.741c0.065-0.012,1.895-0.262,3.924-0.236c1.344,0.021,2.422,1.127,2.404,2.477
		c-0.017,1.085-0.742,1.994-1.731,2.298c-0.232,0.071-0.486,0.109-0.742,0.104c-0.783-0.012-1.605,0.035-2.216,0.089
		c-0.614,0.052-0.992,0.103-0.992,0.103l0.002,0.003C120.68,147.441,119.455,146.507,119.272,145.169 M159.369,129.854
		c0-27.71-22.463-50.176-50.176-50.176c-27.71,0-50.176,22.466-50.176,50.176c0,3.081,0.322,6.084,0.852,9.013
		c0.969-1.379,1.949-2.659,2.944-3.783h0.003c0.865-0.98,2.387-1.181,3.409-0.444c1.016,0.733,1.144,2.125,0.28,3.102
		c-1.898,2.154-3.641,4.419-5.306,6.737c0.247,0.816,0.557,1.604,0.846,2.401c3.17-3.438,6.594-6.629,10.249-9.567
		c1.037-0.829,2.557-0.774,3.406,0.125c0.849,0.897,0.697,2.297-0.334,3.128c-4.126,3.323-7.902,6.999-11.361,10.986
		c0.292,0.604,0.56,1.225,0.876,1.814c4.055-3.623,8.349-6.903,12.917-9.759c1.138-0.709,2.625-0.473,3.331,0.525
		c0.709,0.995,0.363,2.378-0.772,3.087c-4.666,2.923-9.028,6.313-13.137,10.083c0.301,0.462,0.617,0.911,0.933,1.362
		c5.938-4.065,12.297-7.488,19.292-10.254c1.252-0.491,2.643,0.013,3.114,1.133c0.465,1.116-0.173,2.425-1.421,2.923
		c-6.525,2.592-12.607,5.744-18.345,9.65c9.203,10.944,22.981,17.913,38.4,17.913C136.906,180.029,159.369,157.563,159.369,129.854"
		/>
</g>
</svg>
